<svg id="Layer_1" data-name="Layer 1" xmlns="http://www.w3.org/2000/svg" viewBox="0 0 32 32"><defs><style>.cls-1,.cls-2{fill:#181616;}.cls-1{fill-rule:evenodd;}</style></defs><title>github</title><path class="cls-1" d="M16.16,1.32a15.39,15.39,0,0,0-4.87,30c.77.14,1.05-.33,1.05-.74s0-1.58,0-2.87c-4.28.93-5.19-1.82-5.19-1.82a4.08,4.08,0,0,0-1.71-2.25c-1.4-1,.11-.94.11-.94A3.24,3.24,0,0,1,7.9,24.29a3.28,3.28,0,0,0,4.48,1.28,3.28,3.28,0,0,1,1-2.06c-3.42-.39-7-1.71-7-7.61a6,6,0,0,1,1.59-4.13A5.53,5.53,0,0,1,8.08,7.7s1.29-.41,4.23,1.58a14.59,14.59,0,0,1,7.71,0c2.94-2,4.23-1.58,4.23-1.58a5.52,5.52,0,0,1,.15,4.07A5.94,5.94,0,0,1,26,15.9c0,5.91-3.6,7.21-7,7.59a3.68,3.68,0,0,1,1,2.85c0,2.06,0,3.72,0,4.22s.28.89,1.06.74a15.39,15.39,0,0,0-4.87-30Z"/><path class="cls-2" d="M6.6,23.41c0,.08-.15.1-.26,0s-.17-.15-.14-.23.15-.1.27,0,.18.16.14.23Zm-.19-.14"/><path class="cls-2" d="M7.23,24.11c-.07.07-.22,0-.31-.07a.24.24,0,0,1,0-.32c.08-.07.21,0,.32.07s.12.25,0,.32ZM7.08,24"/><path class="cls-2" d="M7.83,25c-.09.07-.25,0-.34-.13s-.09-.3,0-.37.25,0,.34.13.09.3,0,.37Zm0,0"/><path class="cls-2" d="M8.66,25.85c-.08.09-.26.07-.4-.06a.3.3,0,0,1-.09-.39c.09-.09.27-.07.4.06s.17.3.08.39Zm0,0"/><path class="cls-2" d="M9.81,26.35c0,.12-.21.18-.38.12s-.29-.19-.25-.32.21-.18.39-.12.29.19.25.32Zm0,0"/><path class="cls-2" d="M11.07,26.44c0,.13-.14.23-.33.23s-.33-.1-.34-.22.14-.23.33-.24.33.1.33.22Zm0,0"/><path class="cls-2" d="M12.24,26.24c0,.12-.11.25-.29.28s-.34,0-.37-.17.11-.25.29-.29.34,0,.37.17Zm0,0"/></svg>