<svg id="Layer_1" data-name="Layer 1" xmlns="http://www.w3.org/2000/svg" viewBox="0 0 32 32"><defs><style>.cls-1{fill:#fff;}</style></defs><title>pdf</title><path class="cls-1" d="M.5,29.5V2.5H21.33A10.19,10.19,0,0,1,31.5,12.67V29.5Z"/><path d="M21.33,3A9.69,9.69,0,0,1,31,12.67V29H1V3H21.33m0-1H0V30H32V12.67A10.67,10.67,0,0,0,21.33,2Z"/><path d="M4.23,16.77c0-1.1,0-2-.07-2.81H5.56l.07,1.48h0a3.39,3.39,0,0,1,3.06-1.67c2.08,0,3.65,1.76,3.65,4.38,0,3.1-1.89,4.63-3.92,4.63a3,3,0,0,1-2.65-1.35h0V26.1H4.23Zm1.55,2.3a3.53,3.53,0,0,0,.07.64A2.42,2.42,0,0,0,8.2,21.54c1.66,0,2.62-1.35,2.62-3.33,0-1.73-.91-3.2-2.56-3.2a2.5,2.5,0,0,0-2.37,1.94,2.56,2.56,0,0,0-.11.64Z"/><path d="M21.8,9.94V20.35c0,.77,0,1.64.07,2.23H20.47l-.07-1.5h0a3.19,3.19,0,0,1-2.94,1.69c-2.08,0-3.68-1.76-3.68-4.38,0-2.87,1.76-4.63,3.86-4.63a2.88,2.88,0,0,1,2.6,1.32h0V9.94Zm-1.57,7.53a2.75,2.75,0,0,0-.07-.66A2.3,2.3,0,0,0,17.9,15c-1.62,0-2.58,1.42-2.58,3.33,0,1.74.85,3.19,2.55,3.19a2.35,2.35,0,0,0,2.3-1.87,2.71,2.71,0,0,0,.07-.68Z"/><path d="M24.57,22.58V15.15H23.36V14h1.21v-.41a4.06,4.06,0,0,1,1-3,3,3,0,0,1,2.1-.8A3.63,3.63,0,0,1,29,10l-.21,1.21a2.34,2.34,0,0,0-1-.2c-1.34,0-1.67,1.17-1.67,2.49V14H28.2v1.19H26.12v7.42Z"/></svg>